<svg width="40" height="40" viewBox="0 0 40 40" fill="none" xmlns="http://www.w3.org/2000/svg">
<g clip-path="url(#clip0_1163_253)">
<path d="M10 19.5H0V20.5H10V19.5Z" fill="#FCFCFC"/>
<path d="M10.24 22.23L0.390022 23.97L0.210022 22.98L10.06 21.24L10.24 22.23Z" fill="#FCFCFC"/>
<path d="M10.06 18.76L0.210022 17.02L0.390022 16.03L10.24 17.77L10.06 18.76Z" fill="#FCFCFC"/>
<path d="M10.43 17.05L1.03003 13.63L1.37003 12.69L10.77 16.11L10.43 17.05Z" fill="#FCFCFC"/>
<path d="M10.77 23.89L1.37003 27.31L1.03003 26.37L10.43 22.95L10.77 23.89Z" fill="#FCFCFC"/>
<path d="M11.09 15.43L2.42999 10.43L2.92999 9.57001L11.58 14.57L11.09 15.43Z" fill="#FCFCFC"/>
<path d="M11.58 25.43L2.92999 30.43L2.42999 29.57L11.09 24.57L11.58 25.43Z" fill="#FCFCFC"/>
<path d="M12.01 13.95L4.34998 7.53001L4.99998 6.76001L12.66 13.19L12.01 13.95Z" fill="#FCFCFC"/>
<path d="M12.66 26.81L4.99998 33.24L4.34998 32.47L12.01 26.05L12.66 26.81Z" fill="#FCFCFC"/>
<path d="M13.95 27.98L7.52001 35.64L6.76001 35L13.19 27.34L13.95 27.98Z" fill="#FCFCFC"/>
<path d="M13.19 12.66L6.76001 4.99999L7.52001 4.35999L13.95 12.02L13.19 12.66Z" fill="#FCFCFC"/>
<path d="M14.56 11.59L9.56 2.92999L10.43 2.42999L15.43 11.09L14.56 11.59Z" fill="#FCFCFC"/>
<path d="M15.43 28.91L10.43 37.57L9.56 37.07L14.56 28.41L15.43 28.91Z" fill="#FCFCFC"/>
<path d="M16.1 10.77L12.69 1.38001L13.62 1.04001L17.04 10.43L16.1 10.77Z" fill="#FCFCFC"/>
<path d="M17.04 29.57L13.62 38.97L12.69 38.62L16.1 29.23L17.04 29.57Z" fill="#FCFCFC"/>
<path d="M17.01 0.220001L18.75 10.06L17.77 10.24L16.03 0.390001L17.01 0.220001Z" fill="#FCFCFC"/>
<path d="M17.77 29.76L18.75 29.94L17.01 39.78L16.03 39.61L17.77 29.76Z" fill="#FCFCFC"/>
<path d="M20.5 0H19.5V10H20.5V0Z" fill="#FCFCFC"/>
<path d="M20.5 30H19.5V40H20.5V30Z" fill="#FCFCFC"/>
<path d="M22.22 29.76L23.96 39.61L22.98 39.78L21.24 29.93L22.22 29.76Z" fill="#FCFCFC"/>
<path d="M22.22 10.24L21.24 10.07L22.98 0.220001L23.96 0.390001L22.22 10.24Z" fill="#FCFCFC"/>
<path d="M23.89 29.23L27.31 38.62L26.37 38.97L22.95 29.57L23.89 29.23Z" fill="#FCFCFC"/>
<path d="M22.95 10.43L26.37 1.04001L27.31 1.38001L23.89 10.77L22.95 10.43Z" fill="#FCFCFC"/>
<path d="M25.43 28.41L30.43 37.07L29.56 37.57L24.57 28.91L25.43 28.41Z" fill="#FCFCFC"/>
<path d="M24.56 11.09L29.56 2.42999L30.43 2.92999L25.43 11.59L24.56 11.09Z" fill="#FCFCFC"/>
<path d="M26.8 27.34L33.23 35L32.47 35.64L26.04 27.98L26.8 27.34Z" fill="#FCFCFC"/>
<path d="M26.04 12.02L32.47 4.35999L33.23 4.99999L26.8 12.66L26.04 12.02Z" fill="#FCFCFC"/>
<path d="M27.98 26.05L35.64 32.47L34.99 33.24L27.33 26.81L27.98 26.05Z" fill="#FCFCFC"/>
<path d="M27.33 13.19L34.99 6.76001L35.64 7.53001L27.98 13.95L27.33 13.19Z" fill="#FCFCFC"/>
<path d="M28.9 24.56L37.57 29.57L37.07 30.43L28.41 25.43L28.9 24.56Z" fill="#FCFCFC"/>
<path d="M29.56 22.95L38.96 26.37L38.62 27.31L29.22 23.89L29.56 22.95Z" fill="#FCFCFC"/>
<path d="M29.93 21.24L39.78 22.98L39.61 23.97L29.76 22.23L29.93 21.24Z" fill="#FCFCFC"/>
<path d="M40 19.5H19.5V20.5H40V19.5Z" fill="#FCFCFC"/>
</g>
<defs>
<clipPath id="clip0_1163_253">
<rect width="40" height="40" fill="white"/>
</clipPath>
</defs>
</svg>
