<svg width="24" height="24" viewBox="0 0 24 24" fill="none" xmlns="http://www.w3.org/2000/svg">
<g clip-path="url(#clip0_1326_57)">
<path d="M6 11.7H0V12.3H6V11.7Z" fill="#121212"/>
<path d="M6.14398 13.338L0.233977 14.382L0.125977 13.788L6.03598 12.744L6.14398 13.338Z" fill="#121212"/>
<path d="M6.03598 11.256L0.125977 10.212L0.233977 9.61804L6.14398 10.662L6.03598 11.256Z" fill="#121212"/>
<path d="M6.25798 10.23L0.617981 8.17801L0.821981 7.61401L6.46198 9.66601L6.25798 10.23Z" fill="#121212"/>
<path d="M6.46198 14.334L0.821981 16.386L0.617981 15.822L6.25798 13.77L6.46198 14.334Z" fill="#121212"/>
<path d="M6.65401 9.25794L1.45801 6.25794L1.75801 5.74194L6.94801 8.74194L6.65401 9.25794Z" fill="#121212"/>
<path d="M6.94801 15.2579L1.75801 18.2579L1.45801 17.7419L6.65401 14.7419L6.94801 15.2579Z" fill="#121212"/>
<path d="M7.20599 8.37003L2.60999 4.51803L2.99999 4.05603L7.59599 7.91403L7.20599 8.37003Z" fill="#121212"/>
<path d="M7.59599 16.086L2.99999 19.944L2.60999 19.482L7.20599 15.63L7.59599 16.086Z" fill="#121212"/>
<path d="M8.37003 16.7881L4.51203 21.3841L4.05603 21.0001L7.91403 16.4041L8.37003 16.7881Z" fill="#121212"/>
<path d="M7.91403 7.59597L4.05603 2.99997L4.51203 2.61597L8.37003 7.21197L7.91403 7.59597Z" fill="#121212"/>
<path d="M8.73602 6.95401L5.73602 1.75801L6.25802 1.45801L9.25802 6.65401L8.73602 6.95401Z" fill="#121212"/>
<path d="M9.25802 17.346L6.25802 22.542L5.73602 22.242L8.73602 17.046L9.25802 17.346Z" fill="#121212"/>
<path d="M9.66001 6.46202L7.61401 0.828023L8.17201 0.624023L10.224 6.25802L9.66001 6.46202Z" fill="#121212"/>
<path d="M10.224 17.742L8.17201 23.382L7.61401 23.172L9.66001 17.538L10.224 17.742Z" fill="#121212"/>
<path d="M10.206 0.131958L11.25 6.03596L10.662 6.14396L9.61798 0.233958L10.206 0.131958Z" fill="#121212"/>
<path d="M10.662 17.856L11.25 17.964L10.206 23.868L9.61798 23.766L10.662 17.856Z" fill="#121212"/>
<path d="M12.3 0H11.7V6H12.3V0Z" fill="#121212"/>
<path d="M12.3 18H11.7V24H12.3V18Z" fill="#121212"/>
<path d="M13.332 17.856L14.376 23.766L13.788 23.868L12.744 17.958L13.332 17.856Z" fill="#121212"/>
<path d="M13.332 6.14396L12.744 6.04196L13.788 0.131958L14.376 0.233958L13.332 6.14396Z" fill="#121212"/>
<path d="M14.334 17.538L16.386 23.172L15.822 23.382L13.77 17.742L14.334 17.538Z" fill="#121212"/>
<path d="M13.77 6.25802L15.822 0.624023L16.386 0.828023L14.334 6.46202L13.77 6.25802Z" fill="#121212"/>
<path d="M15.258 17.046L18.258 22.242L17.736 22.542L14.742 17.346L15.258 17.046Z" fill="#121212"/>
<path d="M14.736 6.65401L17.736 1.45801L18.258 1.75801L15.258 6.95401L14.736 6.65401Z" fill="#121212"/>
<path d="M16.08 16.4041L19.938 21.0001L19.482 21.3841L15.624 16.7881L16.08 16.4041Z" fill="#121212"/>
<path d="M15.624 7.21197L19.482 2.61597L19.938 2.99997L16.08 7.59597L15.624 7.21197Z" fill="#121212"/>
<path d="M16.788 15.63L21.384 19.482L20.994 19.944L16.398 16.086L16.788 15.63Z" fill="#121212"/>
<path d="M16.398 7.91403L20.994 4.05603L21.384 4.51803L16.788 8.37003L16.398 7.91403Z" fill="#121212"/>
<path d="M17.34 14.736L22.542 17.742L22.242 18.258L17.046 15.258L17.34 14.736Z" fill="#121212"/>
<path d="M17.736 13.77L23.376 15.822L23.172 16.386L17.532 14.334L17.736 13.77Z" fill="#121212"/>
<path d="M17.958 12.744L23.868 13.788L23.766 14.382L17.856 13.338L17.958 12.744Z" fill="#121212"/>
<path d="M24 11.7H11.7V12.3H24V11.7Z" fill="#121212"/>
</g>
<defs>
<clipPath id="clip0_1326_57">
<rect width="24" height="24" fill="white"/>
</clipPath>
</defs>
</svg>
